<mxfile host="app.diagrams.net" modified="2023-11-05T23:43:33.166Z" agent="Mozilla/5.0 (Windows NT 10.0; Win64; x64) AppleWebKit/537.36 (KHTML, like Gecko) Chrome/119.0.0.0 Safari/537.36" etag="-jCAS28AoGBt0QJW2ltq" version="22.0.8" type="github">
  <diagram name="Page-1" id="VZ-_M8H-owYh_-H3WK-M">
    <mxGraphModel dx="1434" dy="782" grid="1" gridSize="10" guides="1" tooltips="1" connect="1" arrows="1" fold="1" page="1" pageScale="1" pageWidth="1300" pageHeight="500" math="0" shadow="0">
      <root>
        <mxCell id="0" />
        <mxCell id="1" parent="0" />
        <mxCell id="iGkODxfKBAp2rJfjAcHF-1" value="CSVParser" style="swimlane;fontStyle=1;align=center;verticalAlign=top;childLayout=stackLayout;horizontal=1;startSize=26;horizontalStack=0;resizeParent=1;resizeParentMax=0;resizeLast=0;collapsible=1;marginBottom=0;whiteSpace=wrap;html=1;" vertex="1" parent="1">
          <mxGeometry x="50" y="102" width="160" height="60" as="geometry" />
        </mxCell>
        <mxCell id="iGkODxfKBAp2rJfjAcHF-3" value="" style="line;strokeWidth=1;fillColor=none;align=left;verticalAlign=middle;spacingTop=-1;spacingLeft=3;spacingRight=3;rotatable=0;labelPosition=right;points=[];portConstraint=eastwest;strokeColor=inherit;" vertex="1" parent="iGkODxfKBAp2rJfjAcHF-1">
          <mxGeometry y="26" width="160" height="8" as="geometry" />
        </mxCell>
        <mxCell id="iGkODxfKBAp2rJfjAcHF-4" value="+ parse_file(str): List[Dict]" style="text;strokeColor=none;fillColor=none;align=left;verticalAlign=top;spacingLeft=4;spacingRight=4;overflow=hidden;rotatable=0;points=[[0,0.5],[1,0.5]];portConstraint=eastwest;whiteSpace=wrap;html=1;" vertex="1" parent="iGkODxfKBAp2rJfjAcHF-1">
          <mxGeometry y="34" width="160" height="26" as="geometry" />
        </mxCell>
        <mxCell id="iGkODxfKBAp2rJfjAcHF-6" style="edgeStyle=orthogonalEdgeStyle;rounded=0;orthogonalLoop=1;jettySize=auto;html=1;entryX=0;entryY=0.5;entryDx=0;entryDy=0;" edge="1" parent="1" source="iGkODxfKBAp2rJfjAcHF-5" target="iGkODxfKBAp2rJfjAcHF-4">
          <mxGeometry relative="1" as="geometry" />
        </mxCell>
        <mxCell id="iGkODxfKBAp2rJfjAcHF-5" value=".csv" style="ellipse;fillColor=#dae8fc;strokeColor=#6c8ebf;" vertex="1" parent="1">
          <mxGeometry y="10" width="60" height="60" as="geometry" />
        </mxCell>
        <mxCell id="iGkODxfKBAp2rJfjAcHF-51" style="edgeStyle=orthogonalEdgeStyle;rounded=0;orthogonalLoop=1;jettySize=auto;html=1;" edge="1" parent="1" source="iGkODxfKBAp2rJfjAcHF-7">
          <mxGeometry relative="1" as="geometry">
            <mxPoint x="460" y="620" as="targetPoint" />
          </mxGeometry>
        </mxCell>
        <mxCell id="iGkODxfKBAp2rJfjAcHF-7" value="CSVAdapter" style="swimlane;fontStyle=1;align=center;verticalAlign=top;childLayout=stackLayout;horizontal=1;startSize=26;horizontalStack=0;resizeParent=1;resizeParentMax=0;resizeLast=0;collapsible=1;marginBottom=0;whiteSpace=wrap;html=1;fillColor=#fff2cc;gradientColor=#ffd966;strokeColor=#d6b656;" vertex="1" parent="1">
          <mxGeometry x="360" y="300" width="200" height="216" as="geometry" />
        </mxCell>
        <mxCell id="iGkODxfKBAp2rJfjAcHF-8" value="+ file_path: str" style="text;strokeColor=none;fillColor=none;align=left;verticalAlign=top;spacingLeft=4;spacingRight=4;overflow=hidden;rotatable=0;points=[[0,0.5],[1,0.5]];portConstraint=eastwest;whiteSpace=wrap;html=1;" vertex="1" parent="iGkODxfKBAp2rJfjAcHF-7">
          <mxGeometry y="26" width="200" height="26" as="geometry" />
        </mxCell>
        <mxCell id="iGkODxfKBAp2rJfjAcHF-40" value="+ sensor_id: str" style="text;strokeColor=none;fillColor=none;align=left;verticalAlign=top;spacingLeft=4;spacingRight=4;overflow=hidden;rotatable=0;points=[[0,0.5],[1,0.5]];portConstraint=eastwest;whiteSpace=wrap;html=1;" vertex="1" parent="iGkODxfKBAp2rJfjAcHF-7">
          <mxGeometry y="52" width="200" height="26" as="geometry" />
        </mxCell>
        <mxCell id="iGkODxfKBAp2rJfjAcHF-41" value="+ data: Dict" style="text;strokeColor=none;fillColor=none;align=left;verticalAlign=top;spacingLeft=4;spacingRight=4;overflow=hidden;rotatable=0;points=[[0,0.5],[1,0.5]];portConstraint=eastwest;whiteSpace=wrap;html=1;" vertex="1" parent="iGkODxfKBAp2rJfjAcHF-7">
          <mxGeometry y="78" width="200" height="26" as="geometry" />
        </mxCell>
        <mxCell id="iGkODxfKBAp2rJfjAcHF-35" value="- _adapter: BaseAdapter" style="text;strokeColor=none;fillColor=none;align=left;verticalAlign=top;spacingLeft=4;spacingRight=4;overflow=hidden;rotatable=0;points=[[0,0.5],[1,0.5]];portConstraint=eastwest;whiteSpace=wrap;html=1;" vertex="1" parent="iGkODxfKBAp2rJfjAcHF-7">
          <mxGeometry y="104" width="200" height="26" as="geometry" />
        </mxCell>
        <mxCell id="iGkODxfKBAp2rJfjAcHF-9" value="" style="line;strokeWidth=1;fillColor=none;align=left;verticalAlign=middle;spacingTop=-1;spacingLeft=3;spacingRight=3;rotatable=0;labelPosition=right;points=[];portConstraint=eastwest;strokeColor=inherit;" vertex="1" parent="iGkODxfKBAp2rJfjAcHF-7">
          <mxGeometry y="130" width="200" height="8" as="geometry" />
        </mxCell>
        <mxCell id="iGkODxfKBAp2rJfjAcHF-10" value="+ adapt_data(List[Dict]): Dict" style="text;strokeColor=none;fillColor=none;align=left;verticalAlign=top;spacingLeft=4;spacingRight=4;overflow=hidden;rotatable=0;points=[[0,0.5],[1,0.5]];portConstraint=eastwest;whiteSpace=wrap;html=1;" vertex="1" parent="iGkODxfKBAp2rJfjAcHF-7">
          <mxGeometry y="138" width="200" height="26" as="geometry" />
        </mxCell>
        <mxCell id="iGkODxfKBAp2rJfjAcHF-38" value="+ get_plot_data(str, float): Dict" style="text;strokeColor=none;fillColor=none;align=left;verticalAlign=top;spacingLeft=4;spacingRight=4;overflow=hidden;rotatable=0;points=[[0,0.5],[1,0.5]];portConstraint=eastwest;whiteSpace=wrap;html=1;" vertex="1" parent="iGkODxfKBAp2rJfjAcHF-7">
          <mxGeometry y="164" width="200" height="26" as="geometry" />
        </mxCell>
        <mxCell id="iGkODxfKBAp2rJfjAcHF-39" value="+ save_to_json(str): None" style="text;strokeColor=none;fillColor=none;align=left;verticalAlign=top;spacingLeft=4;spacingRight=4;overflow=hidden;rotatable=0;points=[[0,0.5],[1,0.5]];portConstraint=eastwest;whiteSpace=wrap;html=1;" vertex="1" parent="iGkODxfKBAp2rJfjAcHF-7">
          <mxGeometry y="190" width="200" height="26" as="geometry" />
        </mxCell>
        <mxCell id="iGkODxfKBAp2rJfjAcHF-11" value="BaseAdapter" style="swimlane;fontStyle=1;align=center;verticalAlign=top;childLayout=stackLayout;horizontal=1;startSize=26;horizontalStack=0;resizeParent=1;resizeParentMax=0;resizeLast=0;collapsible=1;marginBottom=0;whiteSpace=wrap;html=1;" vertex="1" parent="1">
          <mxGeometry x="780" y="50" width="220" height="164" as="geometry" />
        </mxCell>
        <mxCell id="iGkODxfKBAp2rJfjAcHF-12" value="+ sensor_id: str" style="text;strokeColor=none;fillColor=none;align=left;verticalAlign=top;spacingLeft=4;spacingRight=4;overflow=hidden;rotatable=0;points=[[0,0.5],[1,0.5]];portConstraint=eastwest;whiteSpace=wrap;html=1;" vertex="1" parent="iGkODxfKBAp2rJfjAcHF-11">
          <mxGeometry y="26" width="220" height="26" as="geometry" />
        </mxCell>
        <mxCell id="iGkODxfKBAp2rJfjAcHF-15" value="+ data: Dict" style="text;strokeColor=none;fillColor=none;align=left;verticalAlign=top;spacingLeft=4;spacingRight=4;overflow=hidden;rotatable=0;points=[[0,0.5],[1,0.5]];portConstraint=eastwest;whiteSpace=wrap;html=1;" vertex="1" parent="iGkODxfKBAp2rJfjAcHF-11">
          <mxGeometry y="52" width="220" height="26" as="geometry" />
        </mxCell>
        <mxCell id="iGkODxfKBAp2rJfjAcHF-13" value="" style="line;strokeWidth=1;fillColor=none;align=left;verticalAlign=middle;spacingTop=-1;spacingLeft=3;spacingRight=3;rotatable=0;labelPosition=right;points=[];portConstraint=eastwest;strokeColor=inherit;" vertex="1" parent="iGkODxfKBAp2rJfjAcHF-11">
          <mxGeometry y="78" width="220" height="8" as="geometry" />
        </mxCell>
        <mxCell id="iGkODxfKBAp2rJfjAcHF-14" value="+ adapt_data(List[Dict]): Dict" style="text;strokeColor=none;fillColor=none;align=left;verticalAlign=top;spacingLeft=4;spacingRight=4;overflow=hidden;rotatable=0;points=[[0,0.5],[1,0.5]];portConstraint=eastwest;whiteSpace=wrap;html=1;" vertex="1" parent="iGkODxfKBAp2rJfjAcHF-11">
          <mxGeometry y="86" width="220" height="26" as="geometry" />
        </mxCell>
        <mxCell id="iGkODxfKBAp2rJfjAcHF-18" value="+ get_plot_data(str, float): Dict" style="text;strokeColor=none;fillColor=none;align=left;verticalAlign=top;spacingLeft=4;spacingRight=4;overflow=hidden;rotatable=0;points=[[0,0.5],[1,0.5]];portConstraint=eastwest;whiteSpace=wrap;html=1;" vertex="1" parent="iGkODxfKBAp2rJfjAcHF-11">
          <mxGeometry y="112" width="220" height="26" as="geometry" />
        </mxCell>
        <mxCell id="iGkODxfKBAp2rJfjAcHF-19" value="+ save_to_json(str): None" style="text;strokeColor=none;fillColor=none;align=left;verticalAlign=top;spacingLeft=4;spacingRight=4;overflow=hidden;rotatable=0;points=[[0,0.5],[1,0.5]];portConstraint=eastwest;whiteSpace=wrap;html=1;" vertex="1" parent="iGkODxfKBAp2rJfjAcHF-11">
          <mxGeometry y="138" width="220" height="26" as="geometry" />
        </mxCell>
        <mxCell id="iGkODxfKBAp2rJfjAcHF-20" value="Extends" style="endArrow=block;endSize=16;endFill=0;html=1;rounded=0;exitX=0.186;exitY=1;exitDx=0;exitDy=0;exitPerimeter=0;" edge="1" parent="1" source="iGkODxfKBAp2rJfjAcHF-19">
          <mxGeometry width="160" relative="1" as="geometry">
            <mxPoint x="570" y="300" as="sourcePoint" />
            <mxPoint x="730" y="300" as="targetPoint" />
          </mxGeometry>
        </mxCell>
        <mxCell id="iGkODxfKBAp2rJfjAcHF-21" value="CSVType1Adapter" style="swimlane;fontStyle=1;align=center;verticalAlign=top;childLayout=stackLayout;horizontal=1;startSize=26;horizontalStack=0;resizeParent=1;resizeParentMax=0;resizeLast=0;collapsible=1;marginBottom=0;whiteSpace=wrap;html=1;" vertex="1" parent="1">
          <mxGeometry x="630" y="300" width="220" height="60" as="geometry" />
        </mxCell>
        <mxCell id="iGkODxfKBAp2rJfjAcHF-24" value="" style="line;strokeWidth=1;fillColor=none;align=left;verticalAlign=middle;spacingTop=-1;spacingLeft=3;spacingRight=3;rotatable=0;labelPosition=right;points=[];portConstraint=eastwest;strokeColor=inherit;" vertex="1" parent="iGkODxfKBAp2rJfjAcHF-21">
          <mxGeometry y="26" width="220" height="8" as="geometry" />
        </mxCell>
        <mxCell id="iGkODxfKBAp2rJfjAcHF-25" value="+ adapt_data(List[Dict]): Dict" style="text;strokeColor=none;fillColor=none;align=left;verticalAlign=top;spacingLeft=4;spacingRight=4;overflow=hidden;rotatable=0;points=[[0,0.5],[1,0.5]];portConstraint=eastwest;whiteSpace=wrap;html=1;" vertex="1" parent="iGkODxfKBAp2rJfjAcHF-21">
          <mxGeometry y="34" width="220" height="26" as="geometry" />
        </mxCell>
        <mxCell id="iGkODxfKBAp2rJfjAcHF-47" style="edgeStyle=orthogonalEdgeStyle;rounded=0;orthogonalLoop=1;jettySize=auto;html=1;entryX=0;entryY=0.5;entryDx=0;entryDy=0;" edge="1" parent="1" source="iGkODxfKBAp2rJfjAcHF-28" target="iGkODxfKBAp2rJfjAcHF-45">
          <mxGeometry relative="1" as="geometry" />
        </mxCell>
        <mxCell id="iGkODxfKBAp2rJfjAcHF-28" value="CSVType2Adapter" style="swimlane;fontStyle=1;align=center;verticalAlign=top;childLayout=stackLayout;horizontal=1;startSize=26;horizontalStack=0;resizeParent=1;resizeParentMax=0;resizeLast=0;collapsible=1;marginBottom=0;whiteSpace=wrap;html=1;" vertex="1" parent="1">
          <mxGeometry x="870" y="300" width="220" height="60" as="geometry" />
        </mxCell>
        <mxCell id="iGkODxfKBAp2rJfjAcHF-29" value="" style="line;strokeWidth=1;fillColor=none;align=left;verticalAlign=middle;spacingTop=-1;spacingLeft=3;spacingRight=3;rotatable=0;labelPosition=right;points=[];portConstraint=eastwest;strokeColor=inherit;" vertex="1" parent="iGkODxfKBAp2rJfjAcHF-28">
          <mxGeometry y="26" width="220" height="8" as="geometry" />
        </mxCell>
        <mxCell id="iGkODxfKBAp2rJfjAcHF-30" value="+ adapt_data(List[Dict]): Dict" style="text;strokeColor=none;fillColor=none;align=left;verticalAlign=top;spacingLeft=4;spacingRight=4;overflow=hidden;rotatable=0;points=[[0,0.5],[1,0.5]];portConstraint=eastwest;whiteSpace=wrap;html=1;" vertex="1" parent="iGkODxfKBAp2rJfjAcHF-28">
          <mxGeometry y="34" width="220" height="26" as="geometry" />
        </mxCell>
        <mxCell id="iGkODxfKBAp2rJfjAcHF-31" value="Extends" style="endArrow=block;endSize=16;endFill=0;html=1;rounded=0;entryX=0.323;entryY=-0.067;entryDx=0;entryDy=0;entryPerimeter=0;" edge="1" parent="1" source="iGkODxfKBAp2rJfjAcHF-11" target="iGkODxfKBAp2rJfjAcHF-28">
          <mxGeometry width="160" relative="1" as="geometry">
            <mxPoint x="831" y="224" as="sourcePoint" />
            <mxPoint x="740" y="310" as="targetPoint" />
          </mxGeometry>
        </mxCell>
        <mxCell id="iGkODxfKBAp2rJfjAcHF-33" value="..." style="text;align=center;fontStyle=1;verticalAlign=middle;spacingLeft=3;spacingRight=3;strokeColor=none;rotatable=0;points=[[0,0.5],[1,0.5]];portConstraint=eastwest;html=1;" vertex="1" parent="1">
          <mxGeometry x="1100" y="300" width="60" height="50" as="geometry" />
        </mxCell>
        <mxCell id="iGkODxfKBAp2rJfjAcHF-42" value="CSVStrategy" style="swimlane;fontStyle=1;align=center;verticalAlign=top;childLayout=stackLayout;horizontal=1;startSize=26;horizontalStack=0;resizeParent=1;resizeParentMax=0;resizeLast=0;collapsible=1;marginBottom=0;whiteSpace=wrap;html=1;" vertex="1" parent="1">
          <mxGeometry x="850" y="456" width="240" height="60" as="geometry" />
        </mxCell>
        <mxCell id="iGkODxfKBAp2rJfjAcHF-44" value="" style="line;strokeWidth=1;fillColor=none;align=left;verticalAlign=middle;spacingTop=-1;spacingLeft=3;spacingRight=3;rotatable=0;labelPosition=right;points=[];portConstraint=eastwest;strokeColor=inherit;" vertex="1" parent="iGkODxfKBAp2rJfjAcHF-42">
          <mxGeometry y="26" width="240" height="8" as="geometry" />
        </mxCell>
        <mxCell id="iGkODxfKBAp2rJfjAcHF-45" value="+ get_strategy(List[Dict]): BaseAdapter" style="text;strokeColor=none;fillColor=none;align=left;verticalAlign=top;spacingLeft=4;spacingRight=4;overflow=hidden;rotatable=0;points=[[0,0.5],[1,0.5]];portConstraint=eastwest;whiteSpace=wrap;html=1;" vertex="1" parent="iGkODxfKBAp2rJfjAcHF-42">
          <mxGeometry y="34" width="240" height="26" as="geometry" />
        </mxCell>
        <mxCell id="iGkODxfKBAp2rJfjAcHF-46" style="edgeStyle=orthogonalEdgeStyle;rounded=0;orthogonalLoop=1;jettySize=auto;html=1;entryX=0.013;entryY=0.769;entryDx=0;entryDy=0;entryPerimeter=0;" edge="1" parent="1" source="iGkODxfKBAp2rJfjAcHF-21" target="iGkODxfKBAp2rJfjAcHF-45">
          <mxGeometry relative="1" as="geometry" />
        </mxCell>
        <mxCell id="iGkODxfKBAp2rJfjAcHF-48" value="Extends" style="endArrow=block;endSize=16;endFill=0;html=1;rounded=0;entryX=0.75;entryY=0;entryDx=0;entryDy=0;" edge="1" parent="1" source="iGkODxfKBAp2rJfjAcHF-11" target="iGkODxfKBAp2rJfjAcHF-7">
          <mxGeometry width="160" relative="1" as="geometry">
            <mxPoint x="831" y="224" as="sourcePoint" />
            <mxPoint x="740" y="310" as="targetPoint" />
          </mxGeometry>
        </mxCell>
        <mxCell id="iGkODxfKBAp2rJfjAcHF-49" style="edgeStyle=orthogonalEdgeStyle;rounded=0;orthogonalLoop=1;jettySize=auto;html=1;exitX=1;exitY=0.5;exitDx=0;exitDy=0;dashed=1;dashPattern=1 2;" edge="1" parent="1" source="iGkODxfKBAp2rJfjAcHF-45" target="iGkODxfKBAp2rJfjAcHF-35">
          <mxGeometry relative="1" as="geometry">
            <mxPoint x="680" y="420" as="targetPoint" />
            <Array as="points">
              <mxPoint x="1110" y="503" />
              <mxPoint x="1110" y="400" />
              <mxPoint x="770" y="400" />
              <mxPoint x="770" y="420" />
            </Array>
          </mxGeometry>
        </mxCell>
        <mxCell id="iGkODxfKBAp2rJfjAcHF-50" value="goes to" style="edgeStyle=orthogonalEdgeStyle;rounded=0;orthogonalLoop=1;jettySize=auto;html=1;exitX=1;exitY=0.5;exitDx=0;exitDy=0;" edge="1" parent="1" source="iGkODxfKBAp2rJfjAcHF-4" target="iGkODxfKBAp2rJfjAcHF-7">
          <mxGeometry relative="1" as="geometry" />
        </mxCell>
        <mxCell id="iGkODxfKBAp2rJfjAcHF-52" value="json&lt;br&gt;" style="ellipse;html=1;shape=endState;fillColor=#DCFFD4;strokeColor=#ff0000;" vertex="1" parent="1">
          <mxGeometry x="427.5" y="620" width="65" height="60" as="geometry" />
        </mxCell>
        <mxCell id="iGkODxfKBAp2rJfjAcHF-53" value="under the hood" style="ellipse;shape=cloud;whiteSpace=wrap;html=1;sketch=1;curveFitting=1;jiggle=2;fillColor=#f8cecc;strokeColor=#b85450;" vertex="1" parent="1">
          <mxGeometry x="580" y="102" width="120" height="80" as="geometry" />
        </mxCell>
      </root>
    </mxGraphModel>
  </diagram>
</mxfile>
